<?xml version="1.0" encoding="utf-8"?>
<!-- Generator: Adobe Illustrator 23.0.1, SVG Export Plug-In . SVG Version: 6.00 Build 0)  -->
<svg version="1.1" id="Layer_1" xmlns="http://www.w3.org/2000/svg" xmlns:xlink="http://www.w3.org/1999/xlink" x="0px" y="0px"
	 viewBox="0 0 116.12 116.12" style="enable-background:new 0 0 116.12 116.12;" xml:space="preserve">
<style type="text/css">
	.st0{fill:#3AA33A;}
	.st1{fill:#FFFFFF;}
</style>
<circle class="st0" cx="58.06" cy="58.06" r="58.06"/>
<path class="st1" d="M59.19,93.28v-8.12c3.66-0.33,6.68-1.67,9.06-4.02c2.38-2.35,3.57-5.49,3.57-9.43c0-3.12-0.59-5.64-1.76-7.58
	c-1.18-1.94-2.64-3.55-4.39-4.84c-1.75-1.28-3.65-2.38-5.7-3.28c-2.05-0.9-3.95-1.89-5.7-2.95c-1.75-1.07-3.21-2.32-4.39-3.77
	c-1.18-1.45-1.76-3.37-1.76-5.78c0-2.73,0.87-4.99,2.62-6.76c1.75-1.78,4.04-2.66,6.89-2.66c1.26,0,2.38,0.11,3.36,0.33
	c0.98,0.22,1.89,0.55,2.71,0.98c0.82,0.44,1.6,0.96,2.34,1.56c0.74,0.6,1.49,1.29,2.25,2.05l2.13-2.3
	c-1.42-1.48-2.98-2.76-4.67-3.85c-1.7-1.09-3.88-1.72-6.56-1.89v-8.12h-3.2v8.12c-1.64,0.16-3.17,0.6-4.59,1.31
	c-1.42,0.71-2.65,1.63-3.69,2.75c-1.04,1.12-1.85,2.42-2.42,3.89c-0.57,1.48-0.86,3.06-0.86,4.76c0,2.79,0.59,5.04,1.76,6.76
	c1.17,1.72,2.64,3.19,4.39,4.39c1.75,1.2,3.65,2.27,5.7,3.2c2.05,0.93,3.95,1.98,5.7,3.16c1.75,1.18,3.21,2.6,4.39,4.26
	c1.17,1.67,1.76,3.84,1.76,6.52c0,3.01-0.92,5.44-2.75,7.3c-1.83,1.86-4.47,2.79-7.91,2.79c-2.84,0-5.36-0.6-7.54-1.8
	c-2.19-1.2-4.07-2.51-5.66-3.94l-1.97,2.54c1.58,1.53,3.55,2.91,5.9,4.14c2.35,1.23,4.95,1.95,7.79,2.17v8.12H59.19z"/>
</svg>
