<?xml version="1.0" encoding="utf-8"?>
<!-- Generator: Adobe Illustrator 23.0.1, SVG Export Plug-In . SVG Version: 6.00 Build 0)  -->
<svg version="1.1" id="Layer_1" xmlns="http://www.w3.org/2000/svg" xmlns:xlink="http://www.w3.org/1999/xlink" x="0px" y="0px"
	 viewBox="0 0 113.05 68.99" style="enable-background:new 0 0 113.05 68.99;" xml:space="preserve">
<style type="text/css">
	.st0{fill:#3AA33A;}
</style>
<g>
	<path class="st0" d="M78.61,67.95c-6.68,0-12.11-5.43-12.11-12.11s5.43-12.11,12.11-12.11c6.68,0,12.11,5.43,12.11,12.11
		S85.29,67.95,78.61,67.95z M78.61,46.74c-5.02,0-9.11,4.09-9.11,9.11s4.09,9.11,9.11,9.11c5.02,0,9.11-4.09,9.11-9.11
		S83.64,46.74,78.61,46.74z"/>
	<path class="st0" d="M38.64,67.95c-9.95,0-18.05-8.1-18.05-18.05s8.1-18.05,18.05-18.05c9.95,0,18.05,8.1,18.05,18.05
		S48.59,67.95,38.64,67.95z M38.64,34.86c-8.3,0-15.05,6.75-15.05,15.05c0,8.3,6.75,15.05,15.05,15.05S53.69,58.2,53.69,49.9
		C53.69,41.61,46.94,34.86,38.64,34.86z"/>
	<path class="st0" d="M90.96,42.71c-0.83,0-1.5-0.67-1.5-1.5V29.38c0-1.27-1.03-2.3-2.3-2.3H66.71c-2.04,0-3.92-1.19-4.79-3.04
		L54.66,8.66C54.35,7.99,53.72,7.52,53,7.38L34.78,4.08c-0.67-0.12-1.36,0.06-1.88,0.5c-0.52,0.44-0.83,1.08-0.83,1.76v18.67
		c0,0.83-0.67,1.5-1.5,1.5s-1.5-0.67-1.5-1.5V6.34c0-1.58,0.69-3.06,1.9-4.07c1.21-1.01,2.79-1.43,4.34-1.15l18.22,3.31
		c1.68,0.3,3.12,1.41,3.85,2.95l7.25,15.38c0.38,0.8,1.19,1.32,2.08,1.32h20.46c2.92,0,5.3,2.38,5.3,5.3v11.83
		C92.46,42.04,91.79,42.71,90.96,42.71z"/>
	<path class="st0" d="M81.76,27.08c-0.83,0-1.5-0.67-1.5-1.5V10.07c0-0.83,0.67-1.5,1.5-1.5s1.5,0.67,1.5,1.5v15.52
		C83.26,26.41,82.59,27.08,81.76,27.08z"/>
</g>
</svg>
