<?xml version="1.0" encoding="utf-8"?>
<!-- Generator: Adobe Illustrator 24.3.0, SVG Export Plug-In . SVG Version: 6.00 Build 0)  -->
<svg version="1.1" id="Layer_1" xmlns="http://www.w3.org/2000/svg" xmlns:xlink="http://www.w3.org/1999/xlink" x="0px" y="0px"
	 viewBox="0 0 95 59.2" style="enable-background:new 0 0 95 59.2;" xml:space="preserve">
<style type="text/css">
	.st0{fill:#3AA33A;}
</style>
<path class="st0" d="M1.5,42.9c-0.8,0-1.5-0.7-1.5-1.5V9.2C0,4.1,4.1,0,9.2,0H66c5.4,0,10.6,2.3,14.1,6.4l10.1,11.4
	c3.1,3.5,4.8,8,4.8,12.6v9.9c0,0.8-0.7,1.5-1.5,1.5S92,41.2,92,40.4v-9.9c0-3.9-1.4-7.7-4-10.6L77.9,8.4C74.9,5,70.6,3,66,3H9.2
	C5.8,3,3,5.8,3,9.2v32.2C3,42.2,2.3,42.9,1.5,42.9z"/>
<path class="st0" d="M16.3,59.2c-5.5,0-10.1-4.5-10.1-10.1c0-5.5,4.5-10.1,10.1-10.1s10.1,4.5,10.1,10.1
	C26.3,54.7,21.8,59.2,16.3,59.2z M16.3,42.1c-3.9,0-7.1,3.2-7.1,7.1c0,3.9,3.2,7.1,7.1,7.1s7.1-3.2,7.1-7.1
	C23.3,45.3,20.2,42.1,16.3,42.1z"/>
<path class="st0" d="M78.6,59.2c-5.5,0-10.1-4.5-10.1-10.1c0-5.5,4.5-10.1,10.1-10.1c5.5,0,10.1,4.5,10.1,10.1
	C88.7,54.7,84.2,59.2,78.6,59.2z M78.6,42.1c-3.9,0-7.1,3.2-7.1,7.1c0,3.9,3.2,7.1,7.1,7.1c3.9,0,7.1-3.2,7.1-7.1
	C85.7,45.3,82.5,42.1,78.6,42.1z"/>
<path class="st0" d="M79.6,27.8H67.1c-5.1,0-9.3-4.2-9.3-9.3v-17c0-0.8,0.7-1.5,1.5-1.5s1.5,0.7,1.5,1.5v17c0,3.5,2.8,6.3,6.3,6.3
	h12.6c0.8,0,1.5,0.7,1.5,1.5S80.5,27.8,79.6,27.8z"/>
</svg>
