<svg id="Layer_1" data-name="Layer 1" xmlns="http://www.w3.org/2000/svg" viewBox="0 0 100 100"><defs><style>.cls-1{fill:#fff;}.cls-2,.cls-3,.cls-5{fill:#58595b;}.cls-2{opacity:0.6;}.cls-4{fill:#bbbdbf;}.cls-5{opacity:0.8;}.cls-6{fill:#d0d2d3;}</style></defs><title>C2-Logo</title><circle class="cls-1" cx="50" cy="50" r="50"/><rect class="cls-2" x="61.5" y="26.63" width="19.13" height="17.79"/><path class="cls-3" d="M38.67,37.44H19.55l11.22-9.38a7.18,7.18,0,0,1,4.07-1.43h14.3c1.33,0,1.67.64.75,1.43Z"/><path class="cls-2" d="M38.67,73H19.55l11.22-9.38a7.18,7.18,0,0,1,4.07-1.43h14.3c1.33,0,1.67.64.75,1.43Z"/><rect class="cls-3" x="19.55" y="37.44" width="19.13" height="35.59"/><rect class="cls-4" x="19.55" y="37.24" width="19.13" height="0.41"/><path class="cls-3" d="M61.5,26.63H80.63L69.41,36a7.23,7.23,0,0,1-4.08,1.43H51c-1.34,0-1.68-.64-.76-1.43Z"/><path class="cls-2" d="M68.89,73H49.77L61,63.65a7.18,7.18,0,0,1,4.07-1.43h14.3c1.33,0,1.67.64.75,1.43Z"/><rect class="cls-3" x="49.77" y="55.24" width="19.13" height="17.79"/><polygon class="cls-5" points="49.77 55.23 68.89 55.23 80.63 44.43 61.5 44.43 49.77 55.23"/><rect class="cls-6" x="61.5" y="44.28" width="19.13" height="0.41"/></svg>