<?xml version="1.0" encoding="utf-8"?>
<!-- Generator: Adobe Illustrator 25.2.0, SVG Export Plug-In . SVG Version: 6.00 Build 0)  -->
<svg version="1.1" xmlns="http://www.w3.org/2000/svg" xmlns:xlink="http://www.w3.org/1999/xlink" x="0px" y="0px"
	 viewBox="0 0 101.1 69" style="enable-background:new 0 0 101.1 69;" xml:space="preserve">
<style type="text/css">
	.st0{display:none;}
	.st1{display:inline;}
	.st2{fill:#3AA33A;}
</style>
<g id="Layer_1" class="st0">
	<g class="st1">
		<path class="st2" d="M95.8,24.1h-1.5c-0.9,0-1.7-0.5-2.1-1.3L85,7.4c-0.7-1.5-2.2-2.6-3.9-3l-23-3.3c-1.6-0.3-3.1,0.1-4.3,1.1
			c-1.2,1-1.9,2.5-1.9,4.1v15.2c0,1.1-0.9,2-2,2H5c-2.7,0-5,2.2-5,5v12.8c0,0.8,0.7,1.5,1.5,1.5S3,42,3,41.2V28.5c0-1.1,0.9-2,2-2
			h44.9c2.7,0,5-2.2,5-5V6.3c0-0.7,0.3-1.3,0.8-1.8c0.5-0.4,1.2-0.6,1.9-0.5l23,3.3c0.7,0.1,1.4,0.6,1.7,1.3L89.5,24
			c0.9,1.8,2.8,3,4.8,3h1.5c1.3,0,2.3,1,2.3,2.3v11.8c0,0.8,0.7,1.5,1.5,1.5s1.5-0.7,1.5-1.5V29.4C101.1,26.5,98.7,24.1,95.8,24.1z"
			/>
		<path class="st2" d="M83.6,43.7c-6.7,0-12.1,5.4-12.1,12.1S76.9,68,83.6,68c6.7,0,12.1-5.4,12.1-12.1S90.3,43.7,83.6,43.7z
			 M83.6,65c-5,0-9.1-4.1-9.1-9.1s4.1-9.1,9.1-9.1c5,0,9.1,4.1,9.1,9.1S88.6,65,83.6,65z"/>
		<path class="st2" d="M17,43.7c-6.7,0-12.1,5.4-12.1,12.1S10.3,68,17,68s12.1-5.4,12.1-12.1S23.7,43.7,17,43.7z M17,65
			c-5,0-9.1-4.1-9.1-9.1s4.1-9.1,9.1-9.1s9.1,4.1,9.1,9.1S22,65,17,65z"/>
	</g>
</g>
<g id="Layer_8" class="st0">
	<g class="st1">
		<path class="st2" d="M93.3,22.7L83.2,11.3C79.6,7.2,74.5,4.9,69,4.9H12.2C7.2,4.9,3,9,3,14.1v32.2c0,0.8,0.7,1.5,1.5,1.5
			S6,47.1,6,46.3V14.1c0-3.4,2.8-6.2,6.2-6.2h48.6v15.5c0,5.1,4.2,9.3,9.3,9.3h12.6c0.8,0,1.5-0.7,1.5-1.5s-0.7-1.5-1.5-1.5H70.1
			c-3.5,0-6.3-2.8-6.3-6.3V7.9H69c4.6,0,8.9,2,11.9,5.4L91,24.7c2.6,2.9,4,6.7,4,10.6v9.9c0,0.8,0.7,1.5,1.5,1.5s1.5-0.7,1.5-1.5
			v-9.9C98,30.7,96.3,26.2,93.3,22.7z"/>
		<path class="st2" d="M19.3,44C13.8,44,9.2,48.5,9.2,54c0,5.5,4.5,10.1,10.1,10.1S29.4,59.6,29.4,54C29.4,48.5,24.9,44,19.3,44z
			 M19.3,61.1c-3.9,0-7.1-3.2-7.1-7.1c0-3.9,3.2-7.1,7.1-7.1s7.1,3.2,7.1,7.1C26.4,57.9,23.2,61.1,19.3,61.1z"/>
		<path class="st2" d="M81.7,44c-5.5,0-10.1,4.5-10.1,10.1c0,5.5,4.5,10.1,10.1,10.1S91.7,59.6,91.7,54C91.7,48.5,87.2,44,81.7,44z
			 M81.7,61.1c-3.9,0-7.1-3.2-7.1-7.1c0-3.9,3.2-7.1,7.1-7.1s7.1,3.2,7.1,7.1C88.7,57.9,85.6,61.1,81.7,61.1z"/>
	</g>
</g>
<g id="Layer_7">
	<path class="st2" d="M50.5,60.3c-10,0-18-8.1-18-18c0-9.5,16.1-32,16.8-33c0.3-0.4,0.7-0.6,1.2-0.6l0,0c0.5,0,0.9,0.2,1.2,0.6
		c0.7,1,16.8,23.4,16.8,33C68.6,52.2,60.5,60.3,50.5,60.3z M50.5,12.8c-5.1,7.3-15,23-15,29.5c0,8.3,6.8,15,15,15s15-6.8,15-15
		C65.6,35.7,55.6,20.1,50.5,12.8z"/>
</g>
<g id="Layer_6" class="st0">
	<g class="st1">
		<path class="st2" d="M50.5,8.7c-10,0-18,8.1-18,18c0,9.5,16.1,32,16.8,33c0.3,0.4,0.7,0.6,1.2,0.6s0.9-0.2,1.2-0.6
			c0.7-1,16.8-23.4,16.8-33C68.6,16.8,60.5,8.7,50.5,8.7z M50.5,56.2c-5.1-7.3-15-23-15-29.5c0-8.3,6.8-15,15-15c8.3,0,15,6.8,15,15
			C65.6,33.3,55.6,48.9,50.5,56.2z"/>
		<circle class="st2" cx="50.5" cy="27.1" r="3.8"/>
	</g>
</g>
<g id="Layer_5" class="st0">
	<g class="st1">
		<path class="st2" d="M49.8,31.8c7.1,0,12.9-5.8,12.9-12.9S56.9,6,49.8,6s-12.9,5.8-12.9,12.9S42.7,31.8,49.8,31.8z M49.8,9
			c5.4,0,9.9,4.4,9.9,9.9s-4.4,9.9-9.9,9.9s-9.9-4.4-9.9-9.9S44.4,9,49.8,9z"/>
		<path class="st2" d="M59.9,38.8H41.1c-6.7,0-12.2,5.5-12.2,12.2v10.4c0,0.8,0.7,1.5,1.5,1.5s1.5-0.7,1.5-1.5V51
			c0-5.1,4.1-9.2,9.2-9.2h18.8c5.1,0,9.2,4.1,9.2,9.2v10.4c0,0.8,0.7,1.5,1.5,1.5s1.5-0.7,1.5-1.5V51C72.1,44.3,66.6,38.8,59.9,38.8
			z"/>
	</g>
</g>
<g id="Layer_3" class="st0">
	<g class="st1">
		<path class="st2" d="M67.9,25.1H31L13,1.5c-0.5-0.7-1.4-0.8-2.1-0.3c-0.7,0.5-0.8,1.4-0.3,2.1l18.1,23.8v23.2
			c0,0.8,0.7,1.5,1.5,1.5s1.5-0.7,1.5-1.5V28.1h36.2c10.9,0,19.8,8.9,19.8,19.8v1.3c0,0.8,0.7,1.5,1.5,1.5s1.5-0.7,1.5-1.5v-1.3
			C90.7,35.4,80.5,25.1,67.9,25.1z"/>
		<path class="st2" d="M43.4,48c-5.5,0-10.1,4.5-10.1,10.1c0,5.5,4.5,10.1,10.1,10.1S53.4,63.6,53.4,58C53.4,52.5,48.9,48,43.4,48z
			 M43.4,65.1c-3.9,0-7.1-3.2-7.1-7.1c0-3.9,3.2-7.1,7.1-7.1s7.1,3.2,7.1,7.1C50.4,61.9,47.2,65.1,43.4,65.1z"/>
		<path class="st2" d="M76.5,48C71,48,66.4,52.5,66.4,58c0,5.5,4.5,10.1,10.1,10.1S86.6,63.6,86.6,58C86.6,52.5,82.1,48,76.5,48z
			 M76.5,65.1c-3.9,0-7.1-3.2-7.1-7.1c0-3.9,3.2-7.1,7.1-7.1s7.1,3.2,7.1,7.1C83.6,61.9,80.4,65.1,76.5,65.1z"/>
	</g>
</g>
<g id="Layer_2" class="st0">
	<g class="st1">
		<path class="st2" d="M75.7,31.5H58.2c-1.8,0-3.3-1.5-3.3-3.3v-7.6L65.8,2.3c0.3-0.5,0.3-1,0-1.5S65,0,64.5,0H20.7
			c-0.5,0-1,0.3-1.3,0.7c-0.3,0.4-0.3,1-0.1,1.4l7.1,16c0.3,0.8,1.2,1.1,2,0.8c0.8-0.3,1.1-1.2,0.8-2L23,3h38.8l-9.8,16.4
			c-0.1,0.2-0.2,0.5-0.2,0.8v8.1c0,3.5,2.8,6.3,6.3,6.3h17.6c2.2,0,4,1.8,4,4v13.3H30.8c-0.8,0-1.5,0.7-1.5,1.5v14.1
			c0,0.8,0.7,1.5,1.5,1.5s1.5-0.7,1.5-1.5V54.9h47.4v12.6c0,0.8,0.7,1.5,1.5,1.5s1.5-0.7,1.5-1.5V53.4V38.6
			C82.7,34.7,79.6,31.5,75.7,31.5z"/>
		<path class="st2" d="M43.3,35.7c0-6.9-5.6-12.5-12.5-12.5s-12.5,5.6-12.5,12.5s5.6,12.5,12.5,12.5S43.3,42.6,43.3,35.7z
			 M21.3,35.7c0-5.2,4.3-9.5,9.5-9.5s9.5,4.3,9.5,9.5s-4.3,9.5-9.5,9.5S21.3,40.9,21.3,35.7z"/>
	</g>
</g>
<g id="Layer_4" class="st0">
	<g class="st1">
		<path class="st2" d="M72.6,43.7c-6.7,0-12.1,5.4-12.1,12.1S65.9,68,72.6,68c6.7,0,12.1-5.4,12.1-12.1S79.3,43.7,72.6,43.7z
			 M72.6,65c-5,0-9.1-4.1-9.1-9.1s4.1-9.1,9.1-9.1c5,0,9.1,4.1,9.1,9.1S77.6,65,72.6,65z"/>
		<path class="st2" d="M32.6,31.9c-10,0-18,8.1-18,18s8.1,18,18,18c10,0,18-8.1,18-18S42.6,31.9,32.6,31.9z M32.6,65
			c-8.3,0-15-6.8-15-15s6.8-15,15-15s15,6.8,15,15S40.9,65,32.6,65z"/>
		<path class="st2" d="M81.2,24.1h-3.9v-14c0-0.8-0.7-1.5-1.5-1.5s-1.5,0.7-1.5,1.5v14H60.7c-0.9,0-1.7-0.5-2.1-1.3L51.4,7.4
			c-0.7-1.5-2.2-2.6-3.8-3L29.3,1.1c-1.6-0.3-3.1,0.1-4.3,1.1c-1.2,1-1.9,2.5-1.9,4.1V25c0,0.8,0.7,1.5,1.5,1.5s1.5-0.7,1.5-1.5V6.3
			c0-0.7,0.3-1.3,0.8-1.8c0.5-0.4,1.2-0.6,1.9-0.5L47,7.4c0.7,0.1,1.4,0.6,1.7,1.3L55.9,24c0.9,1.8,2.8,3,4.8,3h20.5
			c1.3,0,2.3,1,2.3,2.3v11.8c0,0.8,0.7,1.5,1.5,1.5s1.5-0.7,1.5-1.5V29.4C86.5,26.5,84.1,24.1,81.2,24.1z"/>
	</g>
</g>
</svg>
