<?xml version="1.0" encoding="utf-8"?>
<!-- Generator: Adobe Illustrator 27.0.1, SVG Export Plug-In . SVG Version: 6.00 Build 0)  -->
<svg version="1.1" id="Layer_1" xmlns="http://www.w3.org/2000/svg" xmlns:xlink="http://www.w3.org/1999/xlink" x="0px" y="0px"
	 viewBox="0 0 1024 1024" style="enable-background:new 0 0 1024 1024;" xml:space="preserve">
<style type="text/css">
	.st0{fill:#3BA348;}
	.st1{fill:#FFFFFF;}
</style>
<path class="st0" d="M868,1024H156C69.8,1024,0,954.2,0,868V156C0,69.8,69.8,0,156,0h712c86.2,0,156,69.8,156,156v712
	C1024,954.2,954.2,1024,868,1024z"/>
<g>
	<path class="st1" d="M687.1,585.3c-53.3,0-96.7,43.4-96.7,96.7s43.4,96.7,96.7,96.7s96.7-43.4,96.7-96.7S740.4,585.3,687.1,585.3z
		 M687.1,753.8c-39.6,0-71.7-32.2-71.7-71.7s32.2-71.7,71.7-71.7s71.7,32.2,71.7,71.7S726.6,753.8,687.1,753.8z"/>
	<path class="st1" d="M369.6,491c-79.4,0-143.9,64.6-143.9,143.9s64.6,143.9,143.9,143.9c79.4,0,143.9-64.6,143.9-143.9
		S449,491,369.6,491z M369.6,753.8c-65.6,0-118.9-53.3-118.9-118.9S304,516,369.6,516c65.6,0,118.9,53.3,118.9,118.9
		S435.2,753.8,369.6,753.8z"/>
	<path class="st1" d="M755,429.2h-30.4V318.5c0-6.9-5.6-12.5-12.5-12.5s-12.5,5.6-12.5,12.5v110.7h-107c-6.8,0-13.1-4-16-10.1
		L519,296.9c-5.9-12.4-17.4-21.3-31-23.8l-144.7-26.3c-12.5-2.3-25.2,1.1-35,9.2c-9.7,8.1-15.3,20.1-15.3,32.8v148.3
		c0,6.9,5.6,12.5,12.5,12.5c6.9,0,12.5-5.6,12.5-12.5V288.9c0-5.3,2.3-10.2,6.3-13.6c4-3.4,9.3-4.8,14.5-3.8l144.7,26.3
		c5.6,1,10.4,4.7,12.8,9.8l57.6,122.1c7,14.9,22.2,24.5,38.6,24.5H755c9.7,0,17.7,7.9,17.7,17.7v94c0,6.9,5.6,12.5,12.5,12.5
		s12.5-5.6,12.5-12.5v-94C797.7,448.4,778.5,429.2,755,429.2z"/>
</g>
</svg>
