<?xml version="1.0" encoding="utf-8"?>
<!-- Generator: Adobe Illustrator 23.0.1, SVG Export Plug-In . SVG Version: 6.00 Build 0)  -->
<svg version="1.1" id="Layer_1" xmlns="http://www.w3.org/2000/svg" xmlns:xlink="http://www.w3.org/1999/xlink" x="0px" y="0px"
	 viewBox="0 0 113.05 68.99" style="enable-background:new 0 0 113.05 68.99;" xml:space="preserve">
<style type="text/css">
	.st0{fill:#3AA33A;}
</style>
<g>
	<path class="st0" d="M111.55,42.71c-0.83,0-1.5-0.67-1.5-1.5V29.38c0-1.27-1.03-2.3-2.3-2.3h-1.46c-2.04,0-3.92-1.19-4.79-3.04
		L94.26,8.66c-0.32-0.67-0.94-1.15-1.67-1.28L69.6,4.08c-0.73-0.13-1.41,0.05-1.94,0.49c-0.52,0.44-0.83,1.08-0.83,1.76v15.22
		c0,2.73-2.22,4.96-4.96,4.96H4.95C3.88,26.51,3,27.38,3,28.46v12.75c0,0.83-0.67,1.5-1.5,1.5S0,42.04,0,41.21V28.46
		c0-2.73,2.22-4.95,4.95-4.95h56.93c1.08,0,1.96-0.88,1.96-1.96V6.34c0-1.58,0.69-3.06,1.9-4.07c1.21-1.01,2.79-1.43,4.34-1.15
		l22.98,3.3c1.74,0.31,3.17,1.42,3.9,2.96l7.25,15.38c0.38,0.8,1.19,1.32,2.08,1.32h1.46c2.92,0,5.3,2.38,5.3,5.3v11.83
		C113.05,42.04,112.38,42.71,111.55,42.71z"/>
	<path class="st0" d="M95.62,67.95c-6.68,0-12.11-5.43-12.11-12.11s5.43-12.11,12.11-12.11c6.68,0,12.11,5.43,12.11,12.11
		S102.3,67.95,95.62,67.95z M95.62,46.74c-5.02,0-9.11,4.09-9.11,9.11s4.09,9.11,9.11,9.11c5.02,0,9.11-4.09,9.11-9.11
		S100.64,46.74,95.62,46.74z"/>
	<path class="st0" d="M16.98,67.95c-6.68,0-12.11-5.43-12.11-12.11s5.43-12.11,12.11-12.11c6.68,0,12.11,5.43,12.11,12.11
		S23.65,67.95,16.98,67.95z M16.98,46.74c-5.02,0-9.11,4.09-9.11,9.11s4.09,9.11,9.11,9.11c5.02,0,9.11-4.09,9.11-9.11
		S22,46.74,16.98,46.74z"/>
</g>
</svg>
