<?xml version="1.0" encoding="utf-8"?>
<!-- Generator: Adobe Illustrator 23.0.1, SVG Export Plug-In . SVG Version: 6.00 Build 0)  -->
<svg version="1.1" id="Layer_1" xmlns="http://www.w3.org/2000/svg" xmlns:xlink="http://www.w3.org/1999/xlink" x="0px" y="0px"
	 viewBox="0 0 113.05 68.99" style="enable-background:new 0 0 113.05 68.99;" xml:space="preserve">
<style type="text/css">
	.st0{fill:#3AA33A;}
</style>
<g>
	<path class="st0" d="M60.36,21.7H36.83c-0.55,0-1.06-0.3-1.32-0.79L25.39,2.21c-0.25-0.46-0.24-1.03,0.03-1.48
		C25.69,0.28,26.18,0,26.71,0h43.77c0.53,0,1.02,0.28,1.29,0.73c0.27,0.45,0.28,1.02,0.03,1.48l-10.12,18.7
		C61.42,21.39,60.91,21.7,60.36,21.7z M37.72,18.7h21.75L67.96,3H29.23L37.72,18.7z"/>
	<path class="st0" d="M60.02,34.55c-0.83,0-1.5-0.67-1.5-1.5V20.2c0-0.83,0.67-1.5,1.5-1.5s1.5,0.67,1.5,1.5v12.85
		C61.52,33.88,60.85,34.55,60.02,34.55z"/>
	<path class="st0" d="M87.24,54.86c-0.83,0-1.5-0.67-1.5-1.5V38.58c0-2.23-1.81-4.04-4.04-4.04H60.02c-0.83,0-1.5-0.67-1.5-1.5
		s0.67-1.5,1.5-1.5H81.7c3.88,0,7.04,3.16,7.04,7.04v14.77C88.74,54.19,88.07,54.86,87.24,54.86z"/>
	<path class="st0" d="M87.24,68.99c-0.83,0-1.5-0.67-1.5-1.5V54.86H38.33v12.63c0,0.83-0.67,1.5-1.5,1.5s-1.5-0.67-1.5-1.5V53.36
		c0-0.83,0.67-1.5,1.5-1.5h50.42c0.83,0,1.5,0.67,1.5,1.5v14.13C88.74,68.32,88.07,68.99,87.24,68.99z"/>
	<path class="st0" d="M36.83,49.22c-6.9,0-12.51-5.61-12.51-12.51c0-6.9,5.61-12.51,12.51-12.51S49.34,29.8,49.34,36.7
		C49.34,43.6,43.73,49.22,36.83,49.22z M36.83,27.19c-5.25,0-9.51,4.27-9.51,9.51c0,5.25,4.27,9.51,9.51,9.51s9.51-4.27,9.51-9.51
		C46.34,31.46,42.07,27.19,36.83,27.19z"/>
</g>
</svg>
