<?xml version="1.0" encoding="utf-8"?>
<!-- Generator: Adobe Illustrator 22.1.0, SVG Export Plug-In . SVG Version: 6.00 Build 0)  -->
<svg version="1.1" id="Layer_1" xmlns="http://www.w3.org/2000/svg" xmlns:xlink="http://www.w3.org/1999/xlink" x="0px" y="0px"
	 viewBox="0 0 582 336.4" style="enable-background:new 0 0 582 336.4;" xml:space="preserve">
<style type="text/css">
	.st0{fill:#F6FBF6;}
	.st1{fill:#F6FCF6;}
	.st2{fill:#F5FCF5;}
	.st3{fill:#FAFDFA;}
	.st4{fill:#F5FBF5;}
	.st5{fill:#F4FBF4;}
	.st6{fill:#F8FDF8;}
	.st7{fill:#F3FBF4;}
	.st8{fill:#F3FBF3;}
	.st9{fill:#FAFEFB;}
	.st10{fill:#EDF7ED;}
	.st11{fill:#F2FBF2;}
	.st12{fill:#F3FCF3;}
	.st13{fill:#F1FBF1;}
</style>
<path class="st0" d="M138.2,200c35.3,38,24.9,90.7-5,116.9c-29.3,25.7-74.8,26.1-105.1,0.5c-30-25.4-41.8-78.6-6.3-116.8
	c-4.8-7.6-9.9-14.8-14-22.5c-5.3-10-7.6-21-7.6-32.3C0.1,111.2,0.2,76.6,0.2,41.9c0-0.8,0.1-1.6,0.2-3c17.2-0.8,33,3,47.5,12
	c14.6,9,24.9,21.7,32.3,38.1c16.4-33.8,42.8-50.5,80.4-50.4c0,2.5,0,4.4,0,6.3c0,32.2-0.2,64.3,0,96.5c0.1,21.4-6.4,40.2-20.6,56.3
	C139.4,198.5,138.8,199.3,138.2,200z M86.7,176.5c15.3-22.8,36.2-35,62.6-38c0-13.2,0-26.1,0-39C112.6,101,81.2,136.9,86.7,176.5z
	 M11.4,138.5c12.7,1.6,24.6,5,35.5,11.6c11,6.6,19.6,15.5,27.1,26.4c5.9-40.6-27.5-75.9-62.6-76.8C11.4,112.4,11.4,125.1,11.4,138.5
	z M149.4,50.3c-41.6,2.9-68,42.6-62.5,75.3c15-22.5,35.8-35.1,62.5-37.7C149.4,75.3,149.4,63,149.4,50.3z M11.4,88
	c12.9,1.3,24.7,4.8,35.6,11.4c10.9,6.6,19.6,15.5,27.1,26.5c5-38.4-26.5-74-62.7-75.3C11.4,62.8,11.4,75.1,11.4,88z M11.9,150.1
	c0.8,33.9,34,63,62.4,62.1C73.8,184.8,48,152.5,11.9,150.1z M148.8,150.5c-33.8,0.2-63.4,35.3-61.7,62.3
	C121,210.8,148.1,180.1,148.8,150.5z M74.4,262.3c-21.4,0-42.1,0-63.1,0c1.9,16.8,8.2,30.8,19.9,42.6c13-9.8,27.4-15.2,43.3-16.8
	C74.4,279.3,74.4,270.9,74.4,262.3z M86.3,262c0,9,0,17.5,0,26.3c16.2,1.4,30.4,7.2,43.3,16.7c11.6-12.2,18.2-26.2,19.6-43
	C128.1,262,107.5,262,86.3,262z M31.4,207.9c-10.6,8.6-19.9,28.9-19.7,42.5c20.9,0,41.7,0,62.6,0c0-8.9,0-17.5,0-26.4
	C58.1,223.1,44.1,217.1,31.4,207.9z M129.6,207.6c-13,9.7-27.3,15.4-43.2,16.5c0,9.1,0,17.7,0,26.3c21.1,0,41.8,0,63,0
	C147.7,233.8,141.3,219.7,129.6,207.6z M40.1,312.6c10.5,7.1,21.4,11.9,34.3,12.4c0-8.7,0-17,0-25.2C62.7,300,48.8,305.2,40.1,312.6
	z M86.3,299.7c0,8.6,0,16.8,0,25.3c13-0.5,24-5.3,34.6-12.6C110.2,304.8,99.2,300.4,86.3,299.7z"/>
<path class="st1" d="M251,38.9c6.1,0,11.9,0,18.3,0c3.4,14.9,6.9,29.8,10.6,45.6c3.6-15.6,7-30.6,10.4-45.5c5,0,9.6,0,14.7,0
	c-5.3,20.3-10.5,40.2-15.8,60.3c-6.2,0-12.1,0-18.5,0c-3.6-14.6-7.1-29.1-10.9-44.4c-3.4,15.2-6.7,29.7-10,44.4
	c-6.2,0-11.9,0-18.5,0c-5.6-19.8-11.3-39.9-17.2-60.3c5.3,0,10,0,15.4,0c3.4,13.5,6.9,27.1,10.3,40.7c0.5,0.1,1.1,0.1,1.6,0.2
	C244.6,66.5,247.7,53,251,38.9z"/>
<path class="st2" d="M428.2,199.5c-4-6.3-3.7-8.2,2.5-15.5c-6.5-3.4-11.4-7.9-11.4-16c0-10.9,7.3-19.4,19.4-19.9
	c11.7-0.5,23.5,0.8,35.5,1.3c0,2.4,0,4.7,0,7.6c-3.5,0-6.8,0-10.6,0c8.7,14.9,1,30.8-24.8,29.8c-2.4,3.9,0.5,4.8,3.3,5.6
	c6.1,1.7,12.2,3.1,18.3,5c9.2,2.9,12.6,7.5,12.3,15.7c-0.3,7.4-6.2,14.3-14.7,15.3c-8.5,0.9-17.2,0.9-25.7,0.1
	c-6.8-0.7-12.9-4.1-14.3-11.9c-1.3-7.4,2.5-12.4,8.6-16C427.2,200.3,427.7,199.9,428.2,199.5z M444.5,221.2c3.3-0.5,6.4-0.3,8.7-1.6
	c2.3-1.3,4.9-4,5.1-6.2c0.2-1.7-2.8-4.6-5-5.5c-4.1-1.7-8.6-2.4-13-3.4c-4.3-1-7.6,1-9.1,5.3c-1.5,4.2-0.2,7.6,4.1,9.2
	C438.4,220,441.7,220.5,444.5,221.2z M443.6,157.6c-6.6-0.1-11,3.7-11,9.5c0,5.5,4.4,9.5,10.5,9.6c6.3,0.2,11-3.9,11.1-9.6
	C454.2,161.7,449.7,157.6,443.6,157.6z"/>
<path class="st3" d="M226.5,131.1c4.6,0,9,0,14,0c0,8.5,0,16.9,0,26.6c2.5-1.9,3.8-3.3,5.5-4.1c4-2,7.9-4.5,12.2-5.4
	c8.9-2,16.8,3.2,17.1,12.2c0.7,16.3,0.2,32.6,0.2,49.1c-4.7,0-9.3,0-14.4,0c0-10.8,0-21.5,0-32.1c0-3.3,0.2-6.7-0.1-10
	c-0.5-5.3-3.7-7.6-9-6.9c-6.3,0.8-11.2,6.4-11.2,12.8c0,11.7-0.1,23.3-0.1,35c0,0.3-0.2,0.6-0.5,1.2c-4.3,0-8.7,0-13.6,0
	C226.5,183.4,226.5,157.4,226.5,131.1z"/>
<path class="st3" d="M240.6,324.9c-5.1,0-9.4,0-14.2,0c0-26,0-51.9,0-78c4.5,0,8.9,0,14,0c0,8.3,0,16.7,0,26.3
	c2.7-2.1,4.4-3.6,6.3-4.7c2.9-1.6,5.8-3.4,8.9-4.3c11.6-3,19.4,2.4,19.8,14.3c0.5,15.3,0.1,30.6,0.1,46.3c-4.8,0-9.3,0-14.6,0
	c0-3.5,0-6.9,0-10.3c0-9.8,0.1-19.7,0-29.5c-0.1-8-5.9-11.6-12.8-7.7c-4.4,2.5-8.1,5.5-7.7,12C241.1,301,240.6,312.8,240.6,324.9z"
	/>
<path class="st4" d="M357,149.3c4.9,0,9.5,0,14.3,0c0.1,2.5,0.3,4.8,0.4,7.4c4.1-2.5,7.6-5.2,11.6-6.9c12.9-5.7,23,0.7,23.2,14.7
	c0.2,14.9,0,29.9,0,45.1c-5,0-9.6,0-14.8,0c0-4.3,0-8.4,0-12.5c0-9.5,0.1-19-0.1-28.5c-0.2-6.9-4.8-9.9-11.2-7.5
	c-5.9,2.1-8.9,6.4-8.9,12.6c0,11.8,0,23.6,0,35.7c-4.9,0-9.5,0-14.5,0C357,189.6,357,169.7,357,149.3z"/>
<path class="st2" d="M325.7,209.4c-0.1-2.6-0.2-4.9-0.4-7.9c-2.3,1.7-4.2,3.2-6.2,4.4c-2.4,1.5-4.8,3.1-7.5,3.9
	c-10.5,3.5-19.3-1.2-19.9-12.1c-0.8-16.1-0.2-32.2-0.2-48.6c4.8,0,9.4,0,14.6,0c0,8.1,0,15.8,0,23.6c0,6-0.1,12,0.1,18
	c0.3,7,5.8,9.9,11.8,6.1c4.8-3,8.1-6.5,7.7-13.2c-0.7-11.4-0.2-22.9-0.2-34.6c5.1,0,9.7,0,14.6,0c0,20.1,0,40,0,60.2
	C335.4,209.4,330.8,209.4,325.7,209.4z"/>
<path class="st2" d="M430.4,307.1c3.8,1.3,7.6,2.6,11.5,3.9c-5.7,18.6-32.8,19.6-44,6.5c-10.9-12.7-9.1-38.1,3.6-48.8
	c14.4-12.1,37.7-4.3,41.6,14c1.1,4.9,1.1,10.1,1.7,15.7c-13.5,0-26.1,0-38.6,0c-0.9,8.3,2.4,14.8,8.2,16.8
	C420.4,317.5,425.1,315.1,430.4,307.1z M406,288.3c7.8,0,15.7,0,23.5,0c0.2-9.1-3.8-14.4-10.9-14.6
	C410.9,273.5,406.3,278.7,406,288.3z"/>
<path class="st1" d="M535.2,183c-13.9,0-26.4,0-38.8,0c-1.4,7.4,1.7,14.3,7.3,16.6c6.1,2.5,11.1,0.2,16.7-7.8
	c3.7,1.2,7.6,2.4,11.5,3.7c-6,17.1-30.5,21.1-43.1,7.5c-11.2-12.1-10.6-36.5,1-48.1c13.5-13.4,37.6-7.4,42.6,10.9
	C533.9,171,534.2,176.7,535.2,183z M495.9,173.1c8,0,15.8,0,23.4,0c1.6-7.4-4-14.7-9.9-15C501.5,157.7,496.8,162.5,495.9,173.1z"/>
<path class="st1" d="M364,72.8c-6.5,0-12.7,0-19,0c-6.3,0-12.6,0-18.8,0c-1.4,7.1,2.1,14.6,7.7,16.8c6.2,2.4,11.1,0,16-8.1
	c3.8,1.2,7.6,2.4,11.8,3.7c-2.5,7.9-7.9,12.4-15.3,14.5c-16,4.6-30.9-4.2-34.5-20.5c-2.4-11.2-2-22.2,5.3-31.9
	c11.5-15.4,36.4-12.5,44.1,5C364.1,58.8,364.9,65.4,364,72.8z M349.1,62.6c0.4-9.2-3.4-14.4-10.7-14.5c-7.8-0.2-12.7,5.5-12.5,14.5
	C333.7,62.6,341.4,62.6,349.1,62.6z"/>
<path class="st5" d="M439.5,88.8c0,3.4,0,6.5,0,10c-6.3,2.3-12.6,2.8-18.9,0.5c-5.5-2-8.7-6.4-9.2-12.1c-0.6-7.4-0.6-14.9-0.8-22.4
	c-0.1-3.3,0-6.6,0-10.3c-2.9-0.2-5.5-0.4-8.4-0.6c0-3.4,0-6.6,0-10.2c2.6-0.1,5.1-0.2,8.1-0.4c0-4.4,0-8.8,0-13.3
	c5-2.2,9.5-4.1,14.8-6.4c0,7,0,13.1,0,19.7c4.9,0,9.3,0,14,0c0,3.8,0,7,0,10.7c-4.5,0-8.8,0-13.5,0c0,10.5-0.2,20.5,0.1,30.6
	c0.1,3.5,3.3,4.8,6.6,4.7C434.6,89.5,436.7,89.1,439.5,88.8z"/>
<path class="st6" d="M370.6,269.6c5.3,0,8.9,0,12.7,0c0,3.6,0,6.6,0,10.2c-3.8,0-7.4,0-11.5,0c0,15.2,0,29.9,0,45c-5,0-9.4,0-14.4,0
	c0-14.8,0-29.5,0-44.6c-3.1-0.2-5.7-0.3-8.7-0.5c0-3.1,0-6.2,0-9.8c2.5-0.1,5.1-0.3,8.2-0.5c0.7-8.2-0.6-17.6,8.3-22.5
	c6.5-3.6,13.6-3.6,21-1.7c0,3.3,0,6.4,0,8.5c-4.4,1.1-9.5,0.9-12,3.4C371.7,259.5,371.9,264.6,370.6,269.6z"/>
<path class="st7" d="M322.9,324.8c0-26.3,0-51.9,0-77.9c4.7,0,9.3,0,14.2,0c0,25.9,0,51.7,0,77.9
	C332.4,324.8,327.8,324.8,322.9,324.8z"/>
<path class="st8" d="M562.6,158c5.8-6.1,11-10.9,19.5-10c0,4.3,0,8.6,0,13.3c-8-1.1-14.6,1.4-19.8,8.6c0,12.7,0,25.9,0,39.5
	c-4.9,0-9.4,0-14.2,0c0-20.1,0-40,0-60.2c4.8,0,9.4,0,14.2,0C562.3,152,562.4,154.4,562.6,158z"/>
<path class="st9" d="M376.6,20.8c4.8,0,9.1,0,13.8,0c0,26.2,0,52.2,0,78.5c-4.7,0-9.1,0-13.8,0C376.6,73.1,376.6,47.2,376.6,20.8z"
	/>
<path class="st1" d="M291.7,264.8c4.9,0,9.4,0,14.2,0c0,19.9,0,39.8,0,60c-4.6,0-9.3,0-14.2,0C291.7,304.8,291.7,285.1,291.7,264.8z
	"/>
<path class="st10" d="M80.5,66.5c-4.4-3.7-6.1-7.9-6-13.6c0.4-17.4,0.1-34.9,0.1-52.7c3.7,0,7.1,0,11.1,0c0.1,1.5,0.3,3.3,0.3,5
	c0,16.1-0.3,32.3,0.2,48.4C86.4,59.3,83.9,62.9,80.5,66.5z"/>
<path class="st11" d="M112.6,0c3.4,0,6.7,0,10.3,0c0,11.3,0,22.4,0,33.8c-3.2,1.4-6.5,2.9-10.3,4.5C112.6,25.3,112.6,12.8,112.6,0z"
	/>
<path class="st12" d="M37.8,0c3.7,0,6.9,0,10.4,0c0,12.7,0,25.2,0,38.3c-3.6-1.5-7-3-10.4-4.5C37.8,22.5,37.8,11.5,37.8,0z"/>
<path class="st13" d="M10.9,0.1c0,9.4,0,18.3,0,27.7c-3.4,0-6.8,0-10.5,0c0-9.2,0-18.3,0-27.7C3.9,0.1,7.1,0.1,10.9,0.1z"/>
<path class="st12" d="M149.8,0.1c3.7,0,6.9,0,10.5,0c0,9.3,0,18.3,0,27.7c-3.5,0-6.9,0-10.5,0C149.8,18.6,149.8,9.7,149.8,0.1z"/>
<path class="st10" d="M291.8,246.8c1.3-0.1,2.3-0.3,3.3-0.3c3.5,0,7,0,10.9,0c0,3.6,0,7,0,10.7c-4.7,0-9.2,0-14.1,0
	C291.8,253.8,291.8,250.5,291.8,246.8z"/>
</svg>
